<?xml version="1.0" encoding="utf-8"?>
<!-- Generator: Adobe Illustrator 23.1.0, SVG Export Plug-In . SVG Version: 6.00 Build 0)  -->
<svg version="1.1" id="圖層_1" focusable="false" xmlns="http://www.w3.org/2000/svg" xmlns:xlink="http://www.w3.org/1999/xlink"
	 x="0px" y="0px" viewBox="0 0 512 512" style="enable-background:new 0 0 512 512;" xml:space="preserve">
<style type="text/css">
	.st0{fill:#FC0808;}
</style>
<path class="st0" d="M256,26.4c-141.4,0-256,93.1-256,208c0,47.6,19.9,91.2,52.9,126.3C38,400.1,7,433.5,6.5,433.9
	c-6.6,7-8.4,17.2-4.6,26s12.5,14.5,22.1,14.5c61.5,0,110-25.7,139.1-46.3c28.9,9.1,60.1,14.3,92.9,14.3c141.4,0,256-93.1,256-208
	S397.4,26.4,256,26.4z M256,394.4c-26.7,0-53.1-4.1-78.4-12.1l-22.7-7.2l-19.5,13.8c-14.3,10.1-33.9,21.4-57.5,29
	c7.3-12.1,14.4-25.7,19.9-40.2l10.6-28.1l-20.6-21.8C69.7,308.5,48,276.6,48,234.4c0-88.2,93.3-160,208-160s208,71.8,208,160
	S370.7,394.4,256,394.4z"/>
</svg>
